<svg xmlns="http://www.w3.org/2000/svg" width="860" height="420" viewBox="0 0 860 420">
<style>
text { font-family: "Segoe UI", Arial, sans-serif; fill: #202124; }
.title { font-size: 22px; font-weight: 700; }
.subtitle { font-size: 12px; fill: #5f6368; }
.axis { stroke: #9aa0a6; stroke-width: 1; }
.grid { stroke: #e8eaed; stroke-width: 1; }
.label { font-size: 12px; }
.value { font-size: 11px; font-weight: 600; }
</style>
<rect x="0" y="0" width="860" height="420" fill="#ffffff" />
<text x="90" y="32" class="title">Strategy Comparison</text>
<text x="90" y="50" class="subtitle">Net profit and max drawdown from the latest comparison report</text>
<line x1="90" y1="330.0" x2="830" y2="330.0" class="grid" />
<text x="80" y="334.0" text-anchor="end" class="label">-1.20</text>
<line x1="90" y1="262.5" x2="830" y2="262.5" class="grid" />
<text x="80" y="266.5" text-anchor="end" class="label">-0.90</text>
<line x1="90" y1="195.0" x2="830" y2="195.0" class="grid" />
<text x="80" y="199.0" text-anchor="end" class="label">-0.60</text>
<line x1="90" y1="127.5" x2="830" y2="127.5" class="grid" />
<text x="80" y="131.5" text-anchor="end" class="label">-0.30</text>
<line x1="90" y1="60.0" x2="830" y2="60.0" class="grid" />
<text x="80" y="64.0" text-anchor="end" class="label">0.00</text>
<line x1="90" y1="60" x2="90" y2="330" class="axis" />
<line x1="90" y1="60.0" x2="830" y2="60.0" class="axis" />
<rect x="211.0" y="60.0" width="56.0" height="236.2" fill="#2e7d32" rx="4" />
<rect x="283.0" y="60.0" width="56.0" height="270.0" fill="#c62828" rx="4" />
<text x="239.0" y="52.0" text-anchor="middle" class="value">-1.05</text>
<text x="311.0" y="52.0" text-anchor="middle" class="value">-1.20</text>
<text x="275.0" y="374" text-anchor="middle" class="label">MA Only</text>
<text x="275.0" y="392" text-anchor="middle" class="subtitle">Trades: 2 | Win Rate: 50%</text>
<rect x="581.0" y="60.0" width="56.0" height="101.2" fill="#2e7d32" rx="4" />
<rect x="653.0" y="60.0" width="56.0" height="135.0" fill="#c62828" rx="4" />
<text x="609.0" y="52.0" text-anchor="middle" class="value">-0.45</text>
<text x="681.0" y="52.0" text-anchor="middle" class="value">-0.60</text>
<text x="645.0" y="374" text-anchor="middle" class="label">MA + Filters</text>
<text x="645.0" y="392" text-anchor="middle" class="subtitle">Trades: 2 | Win Rate: 50%</text>
<rect x="90" y="396" width="14" height="14" fill="#2e7d32" rx="3" />
<text x="112" y="407" class="label">Net Profit</text>
<rect x="210" y="396" width="14" height="14" fill="#c62828" rx="3" />
<text x="232" y="407" class="label">Max Drawdown</text>
</svg>